<mxfile host="Electron" agent="Mozilla/5.0 (Macintosh; Intel Mac OS X 10_15_7) AppleWebKit/537.36 (KHTML, like Gecko) draw.io/27.0.9 Chrome/134.0.6998.205 Electron/35.4.0 Safari/537.36" version="27.0.9">
  <diagram id="O1mQ8uQ72U-1HnI_qI8G" name="Page-1">
    <mxGraphModel dx="1752" dy="630" grid="1" gridSize="10" guides="1" tooltips="1" connect="1" arrows="1" fold="1" page="1" pageScale="1" pageWidth="827" pageHeight="1169" math="0" shadow="0">
      <root>
        <mxCell id="0" />
        <mxCell id="1" parent="0" />
        <mxCell id="SZPT0B9Jly421niiBveo-45" value="" style="rounded=0;whiteSpace=wrap;html=1;fillColor=#FFB300;fontColor=#000000;strokeColor=#BD7000;" parent="1" vertex="1">
          <mxGeometry x="160" y="160" width="30" height="30" as="geometry" />
        </mxCell>
        <mxCell id="SZPT0B9Jly421niiBveo-46" value="" style="rounded=0;whiteSpace=wrap;html=1;fillColor=#FFB300;fontColor=#000000;strokeColor=#BD7000;" parent="1" vertex="1">
          <mxGeometry x="280" y="160" width="30" height="30" as="geometry" />
        </mxCell>
        <mxCell id="SZPT0B9Jly421niiBveo-47" value="" style="rounded=0;whiteSpace=wrap;html=1;fillColor=#647687;fontColor=#ffffff;strokeColor=#314354;" parent="1" vertex="1">
          <mxGeometry x="170" y="200" width="30" height="30" as="geometry" />
        </mxCell>
        <mxCell id="SZPT0B9Jly421niiBveo-48" value="" style="rounded=0;whiteSpace=wrap;html=1;fillColor=#647687;fontColor=#ffffff;strokeColor=#314354;" parent="1" vertex="1">
          <mxGeometry x="290" y="200" width="30" height="30" as="geometry" />
        </mxCell>
        <mxCell id="SZPT0B9Jly421niiBveo-49" value="" style="rounded=0;whiteSpace=wrap;html=1;fillColor=#FFB300;fontColor=#000000;strokeColor=#BD7000;" parent="1" vertex="1">
          <mxGeometry x="180" y="280" width="30" height="30" as="geometry" />
        </mxCell>
        <mxCell id="SZPT0B9Jly421niiBveo-50" value="" style="rounded=0;whiteSpace=wrap;html=1;fillColor=#647687;fontColor=#ffffff;strokeColor=#314354;" parent="1" vertex="1">
          <mxGeometry x="210" y="280" width="30" height="30" as="geometry" />
        </mxCell>
        <mxCell id="SZPT0B9Jly421niiBveo-51" value="" style="rounded=0;whiteSpace=wrap;html=1;fillColor=#FFB300;fontColor=#000000;strokeColor=#BD7000;" parent="1" vertex="1">
          <mxGeometry x="400" y="160" width="30" height="30" as="geometry" />
        </mxCell>
        <mxCell id="SZPT0B9Jly421niiBveo-52" value="" style="rounded=0;whiteSpace=wrap;html=1;fillColor=#FFB300;fontColor=#000000;strokeColor=#BD7000;" parent="1" vertex="1">
          <mxGeometry x="520" y="160" width="30" height="30" as="geometry" />
        </mxCell>
        <mxCell id="SZPT0B9Jly421niiBveo-53" value="" style="rounded=0;whiteSpace=wrap;html=1;fillColor=#647687;fontColor=#ffffff;strokeColor=#314354;" parent="1" vertex="1">
          <mxGeometry x="410" y="200" width="30" height="30" as="geometry" />
        </mxCell>
        <mxCell id="SZPT0B9Jly421niiBveo-54" value="" style="rounded=0;whiteSpace=wrap;html=1;fillColor=#647687;fontColor=#ffffff;strokeColor=#314354;" parent="1" vertex="1">
          <mxGeometry x="530" y="200" width="30" height="30" as="geometry" />
        </mxCell>
        <mxCell id="SZPT0B9Jly421niiBveo-55" value="" style="rounded=0;whiteSpace=wrap;html=1;fillColor=#a0522d;fontColor=#ffffff;strokeColor=#6D1F00;" parent="1" vertex="1">
          <mxGeometry x="150" y="240" width="30" height="30" as="geometry" />
        </mxCell>
        <mxCell id="SZPT0B9Jly421niiBveo-56" value="" style="rounded=0;whiteSpace=wrap;html=1;fillColor=#a0522d;fontColor=#ffffff;strokeColor=#6D1F00;" parent="1" vertex="1">
          <mxGeometry x="270" y="240" width="30" height="30" as="geometry" />
        </mxCell>
        <mxCell id="SZPT0B9Jly421niiBveo-57" value="" style="rounded=0;whiteSpace=wrap;html=1;fillColor=#a0522d;fontColor=#ffffff;strokeColor=#6D1F00;" parent="1" vertex="1">
          <mxGeometry x="390" y="240" width="30" height="30" as="geometry" />
        </mxCell>
        <mxCell id="SZPT0B9Jly421niiBveo-58" value="" style="rounded=0;whiteSpace=wrap;html=1;fillColor=#a0522d;fontColor=#ffffff;strokeColor=#6D1F00;" parent="1" vertex="1">
          <mxGeometry x="510" y="240" width="30" height="30" as="geometry" />
        </mxCell>
        <mxCell id="SZPT0B9Jly421niiBveo-59" value="" style="rounded=0;whiteSpace=wrap;html=1;fillColor=#a0522d;fontColor=#ffffff;strokeColor=#6D1F00;" parent="1" vertex="1">
          <mxGeometry x="150" y="280" width="30" height="30" as="geometry" />
        </mxCell>
        <mxCell id="SZPT0B9Jly421niiBveo-60" value="" style="rounded=0;whiteSpace=wrap;html=1;fillColor=#FFB300;fontColor=#000000;strokeColor=#BD7000;" parent="1" vertex="1">
          <mxGeometry x="640" y="160" width="30" height="30" as="geometry" />
        </mxCell>
        <mxCell id="SZPT0B9Jly421niiBveo-61" value="" style="rounded=0;whiteSpace=wrap;html=1;fillColor=#FFB300;fontColor=#000000;strokeColor=#BD7000;" parent="1" vertex="1">
          <mxGeometry x="760" y="160" width="30" height="30" as="geometry" />
        </mxCell>
        <mxCell id="SZPT0B9Jly421niiBveo-62" value="" style="rounded=0;whiteSpace=wrap;html=1;fillColor=#647687;fontColor=#ffffff;strokeColor=#314354;" parent="1" vertex="1">
          <mxGeometry x="650" y="200" width="30" height="30" as="geometry" />
        </mxCell>
        <mxCell id="SZPT0B9Jly421niiBveo-63" value="" style="rounded=0;whiteSpace=wrap;html=1;fillColor=#647687;fontColor=#ffffff;strokeColor=#314354;" parent="1" vertex="1">
          <mxGeometry x="770" y="200" width="30" height="30" as="geometry" />
        </mxCell>
        <mxCell id="SZPT0B9Jly421niiBveo-64" value="" style="rounded=0;whiteSpace=wrap;html=1;fillColor=#a0522d;fontColor=#ffffff;strokeColor=#6D1F00;" parent="1" vertex="1">
          <mxGeometry x="630" y="240" width="30" height="30" as="geometry" />
        </mxCell>
        <mxCell id="SZPT0B9Jly421niiBveo-65" value="" style="rounded=0;whiteSpace=wrap;html=1;fillColor=#a0522d;fontColor=#ffffff;strokeColor=#6D1F00;" parent="1" vertex="1">
          <mxGeometry x="750" y="240" width="30" height="30" as="geometry" />
        </mxCell>
        <mxCell id="SZPT0B9Jly421niiBveo-66" value="" style="endArrow=classic;html=1;rounded=0;strokeColor=#000000;fontColor=#FFFFFF;labelBackgroundColor=none;strokeWidth=2;" parent="1" edge="1">
          <mxGeometry width="50" height="50" relative="1" as="geometry">
            <mxPoint x="150" y="310" as="sourcePoint" />
            <mxPoint x="902.1621621621622" y="310" as="targetPoint" />
          </mxGeometry>
        </mxCell>
        <mxCell id="SZPT0B9Jly421niiBveo-67" value="" style="endArrow=classic;html=1;rounded=0;strokeColor=#000000;fontColor=#FFFFFF;labelBackgroundColor=none;strokeWidth=2;" parent="1" edge="1">
          <mxGeometry width="50" height="50" relative="1" as="geometry">
            <mxPoint x="150" y="270" as="sourcePoint" />
            <mxPoint x="902.1621621621622" y="270" as="targetPoint" />
          </mxGeometry>
        </mxCell>
        <mxCell id="SZPT0B9Jly421niiBveo-68" value="" style="endArrow=classic;html=1;rounded=0;strokeColor=#000000;fontColor=#FFFFFF;labelBackgroundColor=none;strokeWidth=2;" parent="1" edge="1">
          <mxGeometry width="50" height="50" relative="1" as="geometry">
            <mxPoint x="150" y="230" as="sourcePoint" />
            <mxPoint x="902.1621621621622" y="230" as="targetPoint" />
          </mxGeometry>
        </mxCell>
        <mxCell id="SZPT0B9Jly421niiBveo-69" value="" style="endArrow=classic;html=1;rounded=0;strokeColor=#000000;fontColor=#FFFFFF;labelBackgroundColor=none;strokeWidth=2;" parent="1" edge="1">
          <mxGeometry width="50" height="50" relative="1" as="geometry">
            <mxPoint x="148.92000000000002" y="190" as="sourcePoint" />
            <mxPoint x="901.0821621621621" y="190" as="targetPoint" />
          </mxGeometry>
        </mxCell>
        <mxCell id="SZPT0B9Jly421niiBveo-70" value="&lt;b&gt;&lt;font face=&quot;Times New Roman&quot;&gt;&lt;font style=&quot;font-size: 14px;&quot;&gt;ingress port 1&lt;/font&gt;&lt;/font&gt;&lt;/b&gt;" style="text;html=1;align=right;verticalAlign=middle;resizable=0;points=[];autosize=1;strokeColor=none;fillColor=none;fontColor=#000000;" parent="1" vertex="1">
          <mxGeometry x="40" y="170" width="100" height="30" as="geometry" />
        </mxCell>
        <mxCell id="SZPT0B9Jly421niiBveo-71" value="&lt;b&gt;&lt;font face=&quot;Times New Roman&quot;&gt;&lt;font style=&quot;font-size: 14px;&quot;&gt;ingress port 2&lt;/font&gt;&lt;/font&gt;&lt;/b&gt;" style="text;html=1;align=right;verticalAlign=middle;resizable=0;points=[];autosize=1;strokeColor=none;fillColor=none;fontColor=#000000;" parent="1" vertex="1">
          <mxGeometry x="40" y="210" width="100" height="30" as="geometry" />
        </mxCell>
        <mxCell id="SZPT0B9Jly421niiBveo-72" value="&lt;b&gt;&lt;font face=&quot;Times New Roman&quot;&gt;&lt;font style=&quot;font-size: 14px;&quot;&gt;ingress port 3&lt;/font&gt;&lt;/font&gt;&lt;/b&gt;" style="text;html=1;align=right;verticalAlign=middle;resizable=0;points=[];autosize=1;strokeColor=none;fillColor=none;fontColor=#000000;" parent="1" vertex="1">
          <mxGeometry x="39" y="250" width="100" height="30" as="geometry" />
        </mxCell>
        <mxCell id="SZPT0B9Jly421niiBveo-73" value="&lt;b&gt;&lt;font face=&quot;Times New Roman&quot;&gt;&lt;font style=&quot;font-size: 14px;&quot;&gt;t&lt;/font&gt;&lt;/font&gt;&lt;/b&gt;" style="text;html=1;align=left;verticalAlign=middle;resizable=0;points=[];autosize=1;strokeColor=none;fillColor=none;fontColor=#000000;labelBackgroundColor=none;" parent="1" vertex="1">
          <mxGeometry x="900" y="180" width="30" height="30" as="geometry" />
        </mxCell>
        <mxCell id="SZPT0B9Jly421niiBveo-74" value="&lt;b&gt;&lt;font face=&quot;Times New Roman&quot;&gt;&lt;font style=&quot;font-size: 14px;&quot;&gt;t&lt;/font&gt;&lt;/font&gt;&lt;/b&gt;" style="text;html=1;align=left;verticalAlign=middle;resizable=0;points=[];autosize=1;strokeColor=none;fillColor=none;fontColor=#000000;labelBackgroundColor=none;" parent="1" vertex="1">
          <mxGeometry x="900" y="220" width="30" height="30" as="geometry" />
        </mxCell>
        <mxCell id="SZPT0B9Jly421niiBveo-75" value="&lt;b&gt;&lt;font face=&quot;Times New Roman&quot;&gt;&lt;font style=&quot;font-size: 14px;&quot;&gt;t&lt;/font&gt;&lt;/font&gt;&lt;/b&gt;" style="text;html=1;align=left;verticalAlign=middle;resizable=0;points=[];autosize=1;strokeColor=none;fillColor=none;fontColor=#000000;labelBackgroundColor=none;" parent="1" vertex="1">
          <mxGeometry x="900" y="260" width="30" height="30" as="geometry" />
        </mxCell>
        <mxCell id="SZPT0B9Jly421niiBveo-76" value="&lt;b&gt;&lt;font face=&quot;Times New Roman&quot;&gt;&lt;font style=&quot;font-size: 14px;&quot;&gt;t&lt;/font&gt;&lt;/font&gt;&lt;/b&gt;" style="text;html=1;align=left;verticalAlign=middle;resizable=0;points=[];autosize=1;strokeColor=none;fillColor=none;fontColor=#000000;labelBackgroundColor=none;" parent="1" vertex="1">
          <mxGeometry x="900" y="300" width="30" height="30" as="geometry" />
        </mxCell>
        <mxCell id="SZPT0B9Jly421niiBveo-92" value="&lt;b&gt;&lt;font style=&quot;font-size: 16px;&quot;&gt;Strict Priority Scheduling only&lt;/font&gt;&lt;/b&gt;" style="text;html=1;align=center;verticalAlign=middle;resizable=0;points=[];autosize=1;strokeColor=none;fillColor=none;fontColor=#000000;" parent="1" vertex="1">
          <mxGeometry x="370" y="120" width="250" height="30" as="geometry" />
        </mxCell>
        <mxCell id="fOR0tNIUoEo1FcCIywwQ-1" value="&lt;font style=&quot;&quot; face=&quot;Times New Roman&quot;&gt;&lt;font style=&quot;font-size: 14px;&quot;&gt;&lt;b style=&quot;&quot;&gt;egress port&lt;/b&gt;&lt;br&gt;Strict Priority Scheduling only&lt;/font&gt;&lt;/font&gt;" style="text;html=1;align=right;verticalAlign=middle;resizable=0;points=[];autosize=1;strokeColor=none;fillColor=none;fontColor=#000000;" parent="1" vertex="1">
          <mxGeometry x="-60" y="273" width="200" height="50" as="geometry" />
        </mxCell>
        <mxCell id="HhKqfsbvQTBkAHVImRHs-1" value="" style="rounded=0;whiteSpace=wrap;html=1;fillColor=#FFB300;fontColor=#000000;strokeColor=#BD7000;" vertex="1" parent="1">
          <mxGeometry x="300" y="280" width="30" height="30" as="geometry" />
        </mxCell>
        <mxCell id="HhKqfsbvQTBkAHVImRHs-2" value="" style="rounded=0;whiteSpace=wrap;html=1;fillColor=#647687;fontColor=#ffffff;strokeColor=#314354;" vertex="1" parent="1">
          <mxGeometry x="330" y="280" width="30" height="30" as="geometry" />
        </mxCell>
        <mxCell id="HhKqfsbvQTBkAHVImRHs-3" value="" style="rounded=0;whiteSpace=wrap;html=1;fillColor=#a0522d;fontColor=#ffffff;strokeColor=#6D1F00;" vertex="1" parent="1">
          <mxGeometry x="270" y="280" width="30" height="30" as="geometry" />
        </mxCell>
        <mxCell id="HhKqfsbvQTBkAHVImRHs-4" value="" style="rounded=0;whiteSpace=wrap;html=1;fillColor=#FFB300;fontColor=#000000;strokeColor=#BD7000;" vertex="1" parent="1">
          <mxGeometry x="420" y="280" width="30" height="30" as="geometry" />
        </mxCell>
        <mxCell id="HhKqfsbvQTBkAHVImRHs-5" value="" style="rounded=0;whiteSpace=wrap;html=1;fillColor=#647687;fontColor=#ffffff;strokeColor=#314354;" vertex="1" parent="1">
          <mxGeometry x="450" y="280" width="30" height="30" as="geometry" />
        </mxCell>
        <mxCell id="HhKqfsbvQTBkAHVImRHs-6" value="" style="rounded=0;whiteSpace=wrap;html=1;fillColor=#a0522d;fontColor=#ffffff;strokeColor=#6D1F00;" vertex="1" parent="1">
          <mxGeometry x="390" y="280" width="30" height="30" as="geometry" />
        </mxCell>
        <mxCell id="HhKqfsbvQTBkAHVImRHs-7" value="" style="rounded=0;whiteSpace=wrap;html=1;fillColor=#FFB300;fontColor=#000000;strokeColor=#BD7000;" vertex="1" parent="1">
          <mxGeometry x="540" y="280" width="30" height="30" as="geometry" />
        </mxCell>
        <mxCell id="HhKqfsbvQTBkAHVImRHs-8" value="" style="rounded=0;whiteSpace=wrap;html=1;fillColor=#647687;fontColor=#ffffff;strokeColor=#314354;" vertex="1" parent="1">
          <mxGeometry x="570" y="280" width="30" height="30" as="geometry" />
        </mxCell>
        <mxCell id="HhKqfsbvQTBkAHVImRHs-9" value="" style="rounded=0;whiteSpace=wrap;html=1;fillColor=#a0522d;fontColor=#ffffff;strokeColor=#6D1F00;" vertex="1" parent="1">
          <mxGeometry x="510" y="280" width="30" height="30" as="geometry" />
        </mxCell>
        <mxCell id="HhKqfsbvQTBkAHVImRHs-10" value="" style="rounded=0;whiteSpace=wrap;html=1;fillColor=#FFB300;fontColor=#000000;strokeColor=#BD7000;" vertex="1" parent="1">
          <mxGeometry x="660" y="280" width="30" height="30" as="geometry" />
        </mxCell>
        <mxCell id="HhKqfsbvQTBkAHVImRHs-11" value="" style="rounded=0;whiteSpace=wrap;html=1;fillColor=#647687;fontColor=#ffffff;strokeColor=#314354;" vertex="1" parent="1">
          <mxGeometry x="690" y="280" width="30" height="30" as="geometry" />
        </mxCell>
        <mxCell id="HhKqfsbvQTBkAHVImRHs-12" value="" style="rounded=0;whiteSpace=wrap;html=1;fillColor=#a0522d;fontColor=#ffffff;strokeColor=#6D1F00;" vertex="1" parent="1">
          <mxGeometry x="630" y="280" width="30" height="30" as="geometry" />
        </mxCell>
        <mxCell id="HhKqfsbvQTBkAHVImRHs-13" value="" style="rounded=0;whiteSpace=wrap;html=1;fillColor=#FFB300;fontColor=#000000;strokeColor=#BD7000;" vertex="1" parent="1">
          <mxGeometry x="780" y="280" width="30" height="30" as="geometry" />
        </mxCell>
        <mxCell id="HhKqfsbvQTBkAHVImRHs-14" value="" style="rounded=0;whiteSpace=wrap;html=1;fillColor=#647687;fontColor=#ffffff;strokeColor=#314354;" vertex="1" parent="1">
          <mxGeometry x="810" y="280" width="30" height="30" as="geometry" />
        </mxCell>
        <mxCell id="HhKqfsbvQTBkAHVImRHs-15" value="" style="rounded=0;whiteSpace=wrap;html=1;fillColor=#a0522d;fontColor=#ffffff;strokeColor=#6D1F00;" vertex="1" parent="1">
          <mxGeometry x="750" y="280" width="30" height="30" as="geometry" />
        </mxCell>
      </root>
    </mxGraphModel>
  </diagram>
</mxfile>
